<?xml version="1.0" encoding="UTF-8" standalone="no"?><svg id="Layer_1" data-name="Layer 1" xmlns="http://www.w3.org/2000/svg" viewBox="0 0 1216.27 330.32"><defs><style>.cls-1{fill:#fff;}</style></defs><title>LBB_logo_HW</title><path class="cls-1" d="M1168.22,902.79v-3.36h22.16v3.36l-10.1,1.07h-2.06Zm10.94,39.62v4.43h-10.94v-3.36l10-1.07Zm-4.93-43h9.85c-.22,7.31-.22,14.74-.22,22.15V926c0,6.17,0,13.61.22,20.88h-9.85c.22-7.31.22-14.74.22-21.4v-3.86C1174.45,914.13,1174.45,906.7,1174.23,899.43Zm31.57,33.68-.73,13.73h-25.91V943h23.42l-4.76,3.84,2.88-13.73Z" transform="translate(-649.66 -633.19)"/><path class="cls-1" d="M1242.73,926a14.82,14.82,0,0,1-.45,3.92h-27.61v-3.39h15.41c3.48,0,4.33-1.46,4.33-4.07,0-4.38-2.87-7.39-6.46-7.39-3.82,0-7.85,3.54-7.85,13.81,0,8.89,4.51,13.28,10.83,13.28,4.28,0,7.07-1.84,9.47-4.44l2.1,1.81c-2.8,5.33-7.74,8.31-14.56,8.31-10.15,0-17.08-6.72-17.08-17.92,0-11.44,8.46-18.3,17.64-18.3C1237.05,911.62,1242.73,917.35,1242.73,926Z" transform="translate(-649.66 -633.19)"/><path class="cls-1" d="M1260.89,927.51c3-1,7.88-2.28,11.41-3v2.78a67.07,67.07,0,0,0-9.6,2.86c-4.88,1.92-6.32,4.48-6.32,7.21,0,3.68,2.22,5.26,5.1,5.26,2,0,3.25-.74,6.68-3.17l2.19-1.63.89,1.27-2.59,2.68c-3.93,4-6.29,6.07-11.14,6.07-5.46,0-9.62-3.13-9.62-9C1247.89,934.25,1250.41,930.85,1260.89,927.51Zm6.9,13.12V923.52c0-6.66-1.63-8.45-6.34-8.45a20.85,20.85,0,0,0-6.67,1.15l4-2.5-1.19,5.54c-.41,3.44-2.14,5-4.53,5s-3.73-1.15-4.09-3.22c.87-5.69,6.48-9.39,15.37-9.39,8.41,0,12.06,3.62,12.06,12.91v15.59c0,2.3.8,3.21,2.15,3.21a3.13,3.13,0,0,0,2.52-1.57l1.69,1.41a7.54,7.54,0,0,1-7.48,4.54C1270.78,947.71,1268.11,945,1267.79,940.63Z" transform="translate(-649.66 -633.19)"/><path class="cls-1" d="M1289.71,946.84c.14-3.22.21-10.58.21-15v-3.75c0-3.93-.07-5.78-.21-8.64l-5.12-.64v-2.66l12.14-4.52,1.17.74.76,8.1v11.37c0,4.43.07,11.79.22,15Zm13.34-2.93v2.93h-17.92v-2.93l7.35-1.42H1296Zm17.57-19.55v7.47c0,4.57.07,11.79.22,15h-9.17c.14-3.22.21-10.44.21-15v-6.76c0-5.6-1.45-7.48-5.06-7.48-3.09,0-6.33,1.66-9.83,5.09h-2v-3.93h4.32l-2.94,1.66c4.27-5.9,9.22-8.79,14.4-8.79C1317,911.62,1320.62,915.53,1320.62,924.36Zm-2.68,18.13,7.18,1.42v2.93h-17.95v-2.93l7.27-1.42Z" transform="translate(-649.66 -633.19)"/><path class="cls-1" d="M1346.06,902.79v-3.36H1357v4.43h-.93ZM1357,942.41v4.43h-10.93v-3.36l10-1.07Zm-4.7-20.67c0-7.41,0-14.9-.22-22.31h9.74c-.22,7.27-.22,14.76-.22,22.31v2.11c0,8.12,0,15.57.22,23h-9.74c.22-7.27.22-14.73.22-22.29Zm4.7-1.3h7.56c7.52,0,10.86-2.86,10.86-9,0-5.91-3.23-8.33-9.8-8.33H1357v-3.71h11.28c11.14,0,16.34,4.81,16.34,11.38,0,5.44-3.63,10.16-14.35,11.41v-.64c12.1.85,17,5.59,17,12.13,0,6.24-4.94,13.13-20.87,13.13H1357v-3.71h8.2c8,0,12.28-3.32,12.28-9.48,0-6.56-3.92-9.66-12.59-9.66H1357Z" transform="translate(-649.66 -633.19)"/><path class="cls-1" d="M1403.38,934.66c0,5.39,1.68,7.21,4.9,7.21s6.91-2.34,9.8-5.62h2.16v4.19H1416l2.44-1.57c-3.79,6-8.67,9-14,9-6,0-9.92-3.43-9.82-12.86l.25-19.05,1.92,1.83-6.62-1.43v-2.76l12.67-1.51.94.75-.37,10.05Zm14,12.85-.8-8.38.25-23.22,1.92,1.85-6.51-1.43V913.7l12.41-1.64.94.75-.22,10.05v22.57l-3.31-3.1,7.71,1.61v2.92Z" transform="translate(-649.66 -633.19)"/><path class="cls-1" d="M1435,944.84l-.06-8.29h4.86l1.8,9-3.82-1.51v-2.69a15.27,15.27,0,0,0,9,2.9c4.87,0,7.32-1.77,7.32-4.85,0-2.65-1.75-4.17-6.43-5.68l-3.63-1.16c-5.46-1.78-8.78-5-8.78-10.13,0-5.88,4.9-10.82,13.84-10.82a21.56,21.56,0,0,1,10.81,2.9l-.4,7.53h-4.75l-1.77-8,3.33,1.43v2.25a11.86,11.86,0,0,0-7.4-2.5c-3.86,0-6.1,1.67-6.1,4.46,0,2.58,1.44,3.88,6.4,5.51l2.87.89c7.07,2.33,9.83,5.87,9.83,10.74,0,6.45-5.46,11-15.23,11A23.35,23.35,0,0,1,1435,944.84Z" transform="translate(-649.66 -633.19)"/><path class="cls-1" d="M1471.09,946.84c.15-3.22.22-10.58.22-15v-3.39c0-3.92-.07-6.14-.22-9l-5.2-.64v-2.66l13.12-4.52,1.16.74-.21,10v9.46c0,4.43.07,11.79.21,15Zm13.37-2.93v2.93h-18v-2.93l7.34-1.42h3.5Zm-14.41-44.06c0-3,2.43-5.1,5.48-5.1s5.49,2.07,5.49,5.1a5.5,5.5,0,0,1-11,0Z" transform="translate(-649.66 -633.19)"/><path class="cls-1" d="M1493.45,946.84c.15-3.22.22-10.58.22-15v-3.75c0-3.93-.07-5.78-.22-8.64l-5.11-.64v-2.66l12.14-4.52,1.16.74.77,8.1v11.37c0,4.43.07,11.79.22,15Zm13.35-2.93v2.93h-17.92v-2.93l7.35-1.42h3.53Zm17.57-19.55v7.47c0,4.57.07,11.79.22,15h-9.18c.15-3.22.22-10.44.22-15v-6.76c0-5.6-1.45-7.48-5.06-7.48-3.09,0-6.34,1.66-9.83,5.09h-2v-3.93h4.32l-2.94,1.66c4.27-5.9,9.22-8.79,14.4-8.79C1520.78,911.62,1524.37,915.53,1524.37,924.36Zm-2.68,18.13,7.18,1.42v2.93h-17.95v-2.93l7.27-1.42Z" transform="translate(-649.66 -633.19)"/><path class="cls-1" d="M1565.3,926a14.82,14.82,0,0,1-.45,3.92h-27.61v-3.39h15.41c3.48,0,4.34-1.46,4.34-4.07,0-4.38-2.88-7.39-6.46-7.39-3.82,0-7.86,3.54-7.86,13.81,0,8.89,4.51,13.28,10.84,13.28a12.16,12.16,0,0,0,9.47-4.44l2.09,1.81c-2.8,5.33-7.74,8.31-14.55,8.31-10.16,0-17.09-6.72-17.09-17.92,0-11.44,8.46-18.3,17.65-18.3C1559.62,911.62,1565.3,917.35,1565.3,926Z" transform="translate(-649.66 -633.19)"/><path class="cls-1" d="M1571.09,944.84l0-8.29h4.86l1.8,9-3.82-1.51v-2.69a15.27,15.27,0,0,0,9,2.9c4.87,0,7.32-1.77,7.32-4.85,0-2.65-1.75-4.17-6.43-5.68l-3.63-1.16c-5.46-1.78-8.79-5-8.79-10.13,0-5.88,4.91-10.82,13.85-10.82a21.59,21.59,0,0,1,10.81,2.9l-.4,7.53h-4.75l-1.77-8,3.33,1.43v2.25a11.86,11.86,0,0,0-7.4-2.5c-3.86,0-6.11,1.67-6.11,4.46,0,2.58,1.45,3.88,6.41,5.51l2.87.89c7.07,2.33,9.83,5.87,9.83,10.74,0,6.45-5.47,11-15.24,11A23.37,23.37,0,0,1,1571.09,944.84Z" transform="translate(-649.66 -633.19)"/><path class="cls-1" d="M1603.32,944.84l0-8.29h4.86l1.8,9-3.82-1.51v-2.69a15.26,15.26,0,0,0,9,2.9c4.87,0,7.33-1.77,7.33-4.85,0-2.65-1.75-4.17-6.43-5.68l-3.64-1.16c-5.45-1.78-8.78-5-8.78-10.13,0-5.88,4.91-10.82,13.84-10.82a21.56,21.56,0,0,1,10.81,2.9l-.39,7.53h-4.75l-1.77-8,3.33,1.43v2.25a11.88,11.88,0,0,0-7.4-2.5c-3.87,0-6.11,1.67-6.11,4.46,0,2.58,1.44,3.88,6.41,5.51l2.87.89c7.07,2.33,9.83,5.87,9.83,10.74,0,6.45-5.47,11-15.24,11A23.37,23.37,0,0,1,1603.32,944.84Z" transform="translate(-649.66 -633.19)"/><path class="cls-1" d="M1651.65,902.79v-3.36h10.93v4.43h-.94Zm10.93,39.62v4.43h-10.93v-3.36l10-1.07Zm-4.7-20.67c0-7.41,0-14.9-.22-22.31h9.74c-.22,7.27-.22,14.76-.22,22.31v2.11c0,8.12,0,15.57.22,23h-9.74c.22-7.27.22-14.73.22-22.29Zm4.7-1.3h7.56c7.52,0,10.86-2.86,10.86-9,0-5.91-3.24-8.33-9.81-8.33h-8.61v-3.71h11.28c11.14,0,16.33,4.81,16.33,11.38,0,5.44-3.62,10.16-14.34,11.41v-.64c12.09.85,17,5.59,17,12.13,0,6.24-4.94,13.13-20.87,13.13h-9.35v-3.71h8.2c8,0,12.27-3.32,12.27-9.48,0-6.56-3.92-9.66-12.59-9.66h-7.88Z" transform="translate(-649.66 -633.19)"/><path class="cls-1" d="M1702.57,931.83v-3.78c0-3.93-.07-5.75-.21-8.61l-5.12-.64v-2.66l12.14-4.52,1.17.74.76,8.85v10.62c0,4.43.07,11.79.22,15h-9.17C1702.5,943.62,1702.57,936.26,1702.57,931.83Zm-4.75,12.08,7.45-1.42h4.6l7.45,1.42v2.93h-19.5Zm9.34-21.62h4.8l-1.39,1.23c1.79-7.72,6.54-11.9,10.85-11.9a5.67,5.67,0,0,1,5.74,3.87c-.08,3.54-1.79,5.53-4.69,5.53a6.5,6.5,0,0,1-5-2.53l-2-2.19,3.24.17c-3.54,2.08-6.15,5.76-7.45,10.63l-4.06-.26Z" transform="translate(-649.66 -633.19)"/><path class="cls-1" d="M1734.43,946.84c.15-3.22.22-10.58.22-15v-3.39c0-3.92-.07-6.14-.22-9l-5.2-.64v-2.66l13.12-4.52,1.17.74-.22,10v9.46c0,4.43.07,11.79.22,15Zm13.37-2.93v2.93h-18v-2.93l7.34-1.42h3.51Zm-14.41-44.06c0-3,2.43-5.1,5.49-5.1s5.48,2.07,5.48,5.1a5.5,5.5,0,0,1-11,0Z" transform="translate(-649.66 -633.19)"/><path class="cls-1" d="M1770.59,942.76c3.59,0,6.08-2.07,8.89-5.92l.76,1.54c-3.19,6.27-7.11,9.46-13.17,9.46-8.53,0-14.64-6.79-14.64-17.81,0-11.26,7.17-18.41,15.72-18.41,5.23,0,8.52,2.53,12.08,8.5l-.72,1.62c-3.52-3.69-6-5.12-8.86-5.12-4.91,0-8.94,4.16-8.94,13.27C1761.71,938.55,1765.43,942.76,1770.59,942.76Zm19.88,1.15v2.93l-12.67.76-.84-6.81V918.43l.33-.85V901.15l-5.66-.72v-2.76l13.27-3.21,1.09.65-.29,10.06v41.67l-3.08-4.44Z" transform="translate(-649.66 -633.19)"/><path class="cls-1" d="M1820.6,953.38c0-2.64-1.71-4.86-6.31-4.86h-8.09a19.48,19.48,0,0,1-5.74-.66v-.34c-3.7-1-5.4-3-5.4-5.88,0-3.13,2.18-6.14,6.9-10l1.76,1.13c-1.62,1.84-2.35,3.2-2.35,5.16,0,1.8,1,3,4.21,3h9c9.45,0,13.23,3.8,13.23,9.8,0,6.72-6.67,12.81-19.55,12.81-11.25,0-15.29-3.78-15.29-8.53,0-3.5,2.43-6.23,8.83-8.69l.71.53c-2.21,2.47-3.08,4.12-3.08,6.64,0,4.48,3.38,6.31,9.53,6.31C1816.61,959.77,1820.6,957,1820.6,953.38Zm-11.84-41.76c8.9,0,14.07,4.33,14.07,11.64,0,7-5.27,11.56-14.12,11.56s-14.11-4.36-14.11-11.56S1799.87,911.62,1808.76,911.62Zm-6.12,11.63c0,5.14,2,8.45,5.94,8.45s6.27-3.45,6.27-8.63-2.16-8.33-6-8.33S1802.64,918.11,1802.64,923.25Zm24.6-11.71,1.11.71v5h-10.54v-2.14Z" transform="translate(-649.66 -633.19)"/><path class="cls-1" d="M1863.13,926a14.78,14.78,0,0,1-.46,3.92h-27.61v-3.39h15.41c3.48,0,4.34-1.46,4.34-4.07,0-4.38-2.88-7.39-6.46-7.39-3.82,0-7.86,3.54-7.86,13.81,0,8.89,4.51,13.28,10.84,13.28a12.16,12.16,0,0,0,9.47-4.44l2.09,1.81c-2.8,5.33-7.74,8.31-14.55,8.31-10.16,0-17.09-6.72-17.09-17.92,0-11.44,8.46-18.3,17.65-18.3C1857.44,911.62,1863.13,917.35,1863.13,926Z" transform="translate(-649.66 -633.19)"/><path class="cls-1" d="M983.2,783.44c6.16,12.75,13.37,25.11,18.19,38.35,5.56,15.29,9.28,31.29,13.21,47.13,1.1,4.46,3.28,5.89,7.21,7.05,43.87,13,84.6,32.2,120.19,61.42a42,42,0,0,1,5.07,4.62c.68.77.66,2.17,1,3.28-1.12.07-2.46.58-3.33.14-9.51-4.73-18.81-9.91-28.43-14.4-54.14-25.27-110.33-43.59-170.06-49.92a447.09,447.09,0,0,0-155.37,10.52,536.76,536.76,0,0,0-136.47,53.74c-1.28.73-3.12.47-4.71.67.58-1.79.6-4.22,1.81-5.29a254.59,254.59,0,0,1,50.85-34.92c6.67-3.47,9-7.13,8.94-14.85-.34-25.85-.78-51.79,1-77.53,3.68-51.89,24.39-96.17,62.9-131.74,25.16-23.23,54.32-39.32,88-44.69,70.84-11.28,131.28,8.6,177.7,64.66,32.11,38.76,45.75,84.31,45.74,134.26,0,13.74,0,27.49-.3,41.24a12.42,12.42,0,0,1-2,6.8c-2.74,3.7-7.45,2.66-9.71-2.07-3.8-8-7-16.25-11.06-24.06C1048.36,828.59,1027,805,997.47,789.5c-4.57-2.39-9.56-4-14.36-6l-.59-.3ZM888,654.67c-49.09,1.35-96.69,26.87-131.75,75.67-16.88,23.49-25.53,50.26-29.36,78.72-.2,1.51-.12,3.06-.18,4.6a36.44,36.44,0,0,0,2.85-3.76c19.95-34.67,47.19-62,82.08-81.65,4-2.27,5.86-4.49,5.89-9.3A20,20,0,0,1,832,699.47c8.87-2.54,18,.24,22.57,7.58,1.93,3.07,4,4,7.45,4.11,40.94,1.39,73.93,19.48,101.67,48.58a10.1,10.1,0,0,0,4.49,2.46c5.83,1.57,11.85,2.54,17.58,4.39,36.38,11.75,62.57,36.33,83.92,67a16.55,16.55,0,0,0,2.53,2.41,13.29,13.29,0,0,0,.42-3.21c-1.61-13.62-2.25-27.45-5.13-40.8C1050.09,711.34,979.63,654.08,888,654.67Zm109.8,213.7c-2.86-9.83-5.1-18.38-7.85-26.76-7.07-21.58-16.35-42.08-31-59.73-1.28-1.54-3.64-3.1-5.48-3.09A146,146,0,0,0,933.45,780c-32.72,4.74-58.47,21.25-77.27,48.08-6.89,9.83-11.71,21.11-17.42,31.75-1.34,2.49-.78,3.59,2.3,3,2.72-.53,5.51-.66,8.27-1,36.44-4.62,72.85-3.58,109.18,1,11.82,1.51,23.51,4.08,35.28,6.05C995,869.14,996.28,868.61,997.83,868.37ZM814.6,805.11h-.24q0,26.26,0,52.53a25.87,25.87,0,0,0,.18,4.41,25.09,25.09,0,0,0,1.29,3.9,22.29,22.29,0,0,0,2.78-3.57c1-2,1.64-4.27,2.54-6.38,21.66-50.58,56.05-85.91,113-94.22a18.3,18.3,0,0,0,3.17-1.09c-.7-1-1.18-2.4-2.15-3-10-6.1-19.82-12.71-30.3-17.91-13.15-6.53-27.43-9.62-42.15-10.24-2.81-.12-5.19-.11-6.53,3.52-4.17,11.36-16.52,15.27-27,8.91a9.61,9.61,0,0,0-14.55,8.13C814.56,768.45,814.6,786.78,814.6,805.11Zm-16.81,8.74h0c0-17.33,0-34.66,0-52a15.66,15.66,0,0,0-1.06-4,25.87,25.87,0,0,0-3.29,1.87,196.15,196.15,0,0,0-48.14,53.1c-10.44,16.85-19.81,34.32-19,55.21.27,7,.21,14.06,0,21.08-.13,4.13.92,4.35,4.7,3q31.13-11,62.52-21.3c3.54-1.15,4.46-2.58,4.42-6C797.7,847.85,797.79,830.85,797.79,813.85Z" transform="translate(-649.66 -633.19)"/><path class="cls-1" d="M899.19,783.44l-.69-.2.6.3Z" transform="translate(-649.66 -633.19)"/><path class="cls-1" d="M1047.29,836c-9.35-.17-17.11-8-16.83-17a17.65,17.65,0,0,1,17.63-16.89,16.39,16.39,0,0,1,16.34,16.19C1064.36,828.36,1056.81,836.14,1047.29,836Z" transform="translate(-649.66 -633.19)"/><path class="cls-1" d="M1165.41,655.64V633.19h112.1v22.45l-49.79,5.71h-13.81Zm54.28,197.49v28.16h-54.28V858.84l48.5-5.71Zm-32.76-219.94h65.53c-1,38.43-1,78-1,118v17.51c0,33.86,0,73.43,1,112.63h-65.53c1-38.44,1-78,1-106.93V751.15C1187.89,712,1187.89,672.39,1186.93,633.19Zm150.65,172.37-3.22,75.73H1219.69V858.46h104.07l-27,22.83,12.53-75.73Z" transform="translate(-649.66 -633.19)"/><path class="cls-1" d="M1383.83,655.64V633.19h64.3v28.16h-6.85Zm64.3,197.49v28.16h-64.3V858.84l57.45-5.71Zm-37.67-99.7c0-39.95,0-80.28-1.14-120.24h76.1c-1.14,39.2-1.14,79.53-1.14,120.24v7.62c0,40.33,0,80.28,1.14,120.24h-76.1c1.14-39.2,1.14-79.15,1.14-119.86Zm37.67-12.93h43c26.63,0,39.57-16,39.57-44.14,0-25.5-11.41-39.58-37.67-39.58h-44.9V633.19h63.93c69.25,0,90.94,25.12,90.94,57.46,0,27.78-16.36,51-82.19,58.6v-3.43c70.39,3.81,97.79,26.64,97.79,65.07,0,30.82-21.31,70.4-124.81,70.4h-45.66V857.7H1493c29.68,0,48.71-16,48.71-47.57,0-34.25-16-48.32-48-48.32h-45.66Z" transform="translate(-649.66 -633.19)"/><path class="cls-1" d="M1631.16,655.64V633.19h64.31v28.16h-6.85Zm64.31,197.49v28.16h-64.31V858.84l57.46-5.71Zm-37.67-99.7c0-39.95,0-80.28-1.14-120.24h76.1c-1.14,39.2-1.14,79.53-1.14,120.24v7.62c0,40.33,0,80.28,1.14,120.24h-76.1c1.14-39.2,1.14-79.15,1.14-119.86Zm37.67-12.93h43c26.63,0,39.57-16,39.57-44.14,0-25.5-11.42-39.58-37.67-39.58h-44.9V633.19h63.92c69.26,0,90.95,25.12,90.95,57.46,0,27.78-16.37,51-82.19,58.6v-3.43c70.39,3.81,97.79,26.64,97.79,65.07,0,30.82-21.31,70.4-124.81,70.4h-45.66V857.7h44.9c29.68,0,48.7-16,48.7-47.57,0-34.25-16-48.32-47.94-48.32h-45.66Z" transform="translate(-649.66 -633.19)"/><path class="cls-1" d="M837.85,747.47c-13.8-.25-25.26-11.8-24.85-25a26.05,26.05,0,0,1,26-24.94c13.23,0,24.2,10.92,24.12,23.91C863.06,736.23,851.91,747.72,837.85,747.47Z" transform="translate(-649.66 -633.19)"/></svg>