<?xml version="1.0" encoding="UTF-8" standalone="no"?><svg id="Layer_1" data-name="Layer 1" xmlns="http://www.w3.org/2000/svg" viewBox="0 0 109.51 27.44"><defs><style>.cls-1{fill:#fff;}</style></defs><title>logo</title><path class="cls-1" d="M19.31,157.85v-3.24c0-.81.29-1.1,1.12-1.1h5.38c1.27,0,1.78-.52,1.78-1.78,0-1.77,0-3.54,0-5.31,0-1,.17-1.2,1.18-1.2h6.35c.79,0,1.09.28,1.1,1q0,3.28,0,6.55c0,.84-.47,1.16-1.72,1.17-.77,0-1.55-.09-2.32-.11a4.06,4.06,0,0,0-2.88.83A3.32,3.32,0,0,0,28,157.27c0,1.17,0,2.34,0,3.51s-.33,1.5-1.51,1.5H20.36c-.85,0-1.05-.2-1.05-1.05Z" transform="translate(-19.31 -145.22)"/><path class="cls-1" d="M31.89,170.57c-1.08,0-2.16,0-3.24,0-.67,0-.91-.3-.91-.91q0-3.34,0-6.69c0-.75.32-1,1.11-1,1.15,0,2.3,0,3.44,0a3.82,3.82,0,0,0,3.86-3.86c0-1.17,0-2.33,0-3.5,0-.7.43-1,1-1.05a12.46,12.46,0,0,1,1.49.06c.88,0,1.76,0,2.63,0s1.82,0,2.72.08c.46,0,.57.37.57.79,0,1,0,2.08,0,3.12s.07,2.3.09,3.44c0,.92-.37,1.27-1.29,1.28H38.16a1.92,1.92,0,0,0-1.93,1.95c0,1.74,0,3.49,0,5.24,0,.85-.24,1.09-1.1,1.1Z" transform="translate(-19.31 -145.22)"/><path class="cls-1" d="M73.74,156.31h-1.8c0-.27,0-.51,0-.76,0-1.28,0-2.57,0-3.86a1.25,1.25,0,0,0-1.41-1.42c-.81,0-1.26.51-1.27,1.43,0,1.24,0,2.48,0,3.72,0,.31-.17.82-.34.86a5,5,0,0,1-1.49,0c-.07,0-.15-.27-.15-.42,0-2.39,0-4.78,0-7.28a11.94,11.94,0,0,1,1.59,0c.18,0,.31.37.47.57,1.52-1.14,2.93-1.06,4,.39a2.81,2.81,0,0,1,2.9-1.12,2.47,2.47,0,0,1,2.13,2.38c0,1.58.06,3.16.14,4.74,0,.66-.26.86-.85.82h-.41c-.56.07-.78-.15-.77-.73,0-1.27,0-2.53,0-3.8,0-1.1-.33-1.54-1.16-1.54-1,0-1.5.51-1.51,1.59,0,1.33,0,2.66,0,4C73.78,156,73.76,156.12,73.74,156.31Z" transform="translate(-19.31 -145.22)"/><path class="cls-1" d="M115.69,164.34a8.48,8.48,0,0,1,1.13,1.67,2.62,2.62,0,0,1-1.42,3.17,4.8,4.8,0,0,1-1.7.4c-1.37.06-2.75,0-4.19,0v-10c1.09,0,2.18,0,3.25,0a6.21,6.21,0,0,1,2.83.56A2.54,2.54,0,0,1,115.69,164.34Zm-4.27,3.54c.93-.06,1.73-.07,2.52-.17s.89-.51.91-1.22-.47-.93-1-1c-.78-.13-1.59-.14-2.46-.21Zm0-4.1c.83-.07,1.58-.09,2.31-.22a1,1,0,0,0,.95-1,.89.89,0,0,0-.74-1.06,21.47,21.47,0,0,0-2.67,0Z" transform="translate(-19.31 -145.22)"/><path class="cls-1" d="M50.23,170.08a1.56,1.56,0,0,1,2.07.26,2.06,2.06,0,0,0,2.14.46c.89-.36,1.22-1,1.14-2.12a3.16,3.16,0,0,1-3.45.45,3.62,3.62,0,0,1-1.45-1.2,4,4,0,0,1,.25-4.93c1.28-1.51,2.57-1.64,4.58-.65.35-.48.84-.56,2.09-.33,0,.23,0,.47,0,.72,0,2,0,4.09,0,6.14a3.65,3.65,0,0,1-2.76,3.66c-1.6.3-3.42.07-4.23-1.41A8.38,8.38,0,0,1,50.23,170.08Zm5.39-4.33c0-1.43-.61-2.19-1.73-2.23A1.92,1.92,0,0,0,52,165.43c0,1.35.76,2.17,1.92,2.16A1.66,1.66,0,0,0,55.62,165.75Z" transform="translate(-19.31 -145.22)"/><path class="cls-1" d="M79.77,156.34v-6.45c0-1.37,0-1.37,1.4-1.36h.39l.15.56a2.81,2.81,0,0,1,4.14.38,2.82,2.82,0,0,1,3.19-1,2.21,2.21,0,0,1,1.82,2.13c.12,1.88,0,3.76,0,5.69H89.24a2.32,2.32,0,0,1-.07-.38c0-1.44-.1-2.88-.14-4.32a1.34,1.34,0,0,0-1.26-1.43,1.42,1.42,0,0,0-1.43,1.49c0,1.31,0,2.62,0,3.93,0,.56-.16.84-.74.76H85.4c-1.07,0-1.07,0-1.07-1,0-1.26,0-2.53,0-3.79,0-.58-.18-1.07-.77-1.22-.88-.23-1.39,0-1.67.75a3.71,3.71,0,0,0-.24,1.19c0,1.1,0,2.21,0,3.31,0,.66-.22.87-.84.81A9.11,9.11,0,0,0,79.77,156.34Z" transform="translate(-19.31 -145.22)"/><path class="cls-1" d="M106.74,164.48a2.42,2.42,0,0,1,1.35,2.56,2.75,2.75,0,0,1-2.64,2.52c-1.53.12-3.07,0-4.65,0v-9.82a14.82,14.82,0,0,1,5.06,0,2.35,2.35,0,0,1,2,1.85A2.55,2.55,0,0,1,106.74,164.48Zm-4,.79v2.45c.79,0,1.57,0,2.35,0a1,1,0,0,0,1-.94c0-.61-.12-1.16-.73-1.28A24.4,24.4,0,0,0,102.69,165.27Zm0-1.52c.87-.06,1.6-.09,2.33-.18a1,1,0,0,0,.9-1.21c0-.63-.34-.88-1-.91s-1.21-.1-1.82-.1a.49.49,0,0,0-.36.35C102.62,162.35,102.64,163,102.64,163.75Z" transform="translate(-19.31 -145.22)"/><path class="cls-1" d="M82.83,161.93l.17.66a3.26,3.26,0,0,1,4.31-.08,4.55,4.55,0,0,1,.32,6.22,3.26,3.26,0,0,1-4.1.65c-.14-.07-.26-.16-.5-.3v2.41c0,1,0,1-1,1h-.83v-.87c0-3.1,0-6.2,0-9.31,0-.13.23-.35.37-.37A11.46,11.46,0,0,1,82.83,161.93Zm3.85,3.83c0-.14,0-.28,0-.42a2,2,0,0,0-1.46-1.81,1.83,1.83,0,0,0-2.09,1.17,2.84,2.84,0,0,0,0,2.05,1.76,1.76,0,0,0,2.36,1.1A2,2,0,0,0,86.68,165.76Z" transform="translate(-19.31 -145.22)"/><path class="cls-1" d="M99.46,153.05H94.1a1.74,1.74,0,0,0,1.15,1.66,1.83,1.83,0,0,0,2.13-.58,1.28,1.28,0,0,1,.8-.27c.41,0,.82,0,1.23,0a3.08,3.08,0,0,1-2.57,2.59,3.74,3.74,0,0,1-4.54-2.58c-.72-2.3.36-4.82,2.5-5.35a3.57,3.57,0,0,1,4.66,3.37C99.47,152.25,99.46,152.62,99.46,153.05Zm-2-1.49c-.29-1.13-.74-1.49-1.74-1.43s-1.33.46-1.47,1.43Z" transform="translate(-19.31 -145.22)"/><path class="cls-1" d="M118.92,151.1a2.37,2.37,0,0,1,1.56-2.45,3.65,3.65,0,0,1,4.19.79,2.75,2.75,0,0,1,.58,1.53c.07,1.51,0,3,0,4.55,0,.32.13.71-.38.82a1.36,1.36,0,0,1-1.58-.59,3.07,3.07,0,0,1-3,.61,2.35,2.35,0,0,1-1.88-2,2.31,2.31,0,0,1,1.36-2.26,25.13,25.13,0,0,1,2.88-.68,4.54,4.54,0,0,0,.7-.26c-.14-.3-.21-.72-.45-.9a1.36,1.36,0,0,0-2,.28,1.12,1.12,0,0,1-1.22.55C119.45,151.08,119.18,151.1,118.92,151.1Zm4,1.75a12.77,12.77,0,0,0-1.89.49c-.23.09-.39.54-.41.83s.29.45.5.54a1.59,1.59,0,0,0,2.24-1.24C123.44,153,123.29,152.89,122.87,152.85Z" transform="translate(-19.31 -145.22)"/><path class="cls-1" d="M72,165.83a3.95,3.95,0,1,1-7.88-.26,3.75,3.75,0,0,1,4.08-3.86A3.82,3.82,0,0,1,72,165.83Zm-2,0a2.09,2.09,0,0,0-2-2.29,2.12,2.12,0,0,0-1.92,2.24,2.16,2.16,0,0,0,2,2.24A1.94,1.94,0,0,0,70,165.82Z" transform="translate(-19.31 -145.22)"/><path class="cls-1" d="M62.35,148.4c2.25-.15,4,1.72,3.92,4.19a3.93,3.93,0,1,1-7.86-.08C58.42,150,60.19,148.26,62.35,148.4Zm0,1.87c-1.18-.16-1.94.89-1.94,2.14s.58,2.35,1.93,2.35a2,2,0,0,0,1.95-2.26C64.3,151.31,63.54,150.07,62.36,150.27Z" transform="translate(-19.31 -145.22)"/><path class="cls-1" d="M79.54,169.63c-.68-.22-1.5.42-1.93-.6a2.65,2.65,0,0,1-3.11.55,2.94,2.94,0,0,1-1.75-3c-.06-1.38,0-2.76,0-4.14,0-.47.1-.66.63-.55a8,8,0,0,0,1.39,0c0,1.27,0,2.48,0,3.69a7,7,0,0,0,.13,1.29,1.22,1.22,0,0,0,1.31,1.1,1.34,1.34,0,0,0,1.36-1.1,19.79,19.79,0,0,0,.15-2.32c0-.84,0-1.69,0-2.6h1.84Z" transform="translate(-19.31 -145.22)"/><path class="cls-1" d="M113.67,153.5a3.61,3.61,0,0,1-3.25,3,3.78,3.78,0,0,1-4.2-2.83c-.49-2.15.33-4.6,2.68-5.16,2.13-.5,4,.28,4.67,2.42.13.42,0,.56-.37.58a11.42,11.42,0,0,1-1.17,0,.49.49,0,0,1-.35-.22c-.7-1.09-1.37-1.38-2.36-1a2.35,2.35,0,0,0-1.27,2.56c.24,1.25,1,2,2,1.86a1.94,1.94,0,0,0,1.32-.68,1.06,1.06,0,0,1,1.11-.54Z" transform="translate(-19.31 -145.22)"/><path class="cls-1" d="M57.73,153.51a3.48,3.48,0,0,1-3.7,3,3.78,3.78,0,0,1-3.81-3.75A4.1,4.1,0,0,1,52,149a3.73,3.73,0,0,1,5.57,1.78,4,4,0,0,1,.09.72c-.59,0-1.11,0-1.62,0-.11,0-.23-.14-.31-.24-.93-1.11-1.46-1.3-2.4-.84a2.35,2.35,0,0,0-1.17,2.55,2,2,0,0,0,1.55,1.79,1.81,1.81,0,0,0,2.07-1,.48.48,0,0,1,.36-.22C56.63,153.49,57.16,153.51,57.73,153.51Z" transform="translate(-19.31 -145.22)"/><path class="cls-1" d="M94.91,167.73h4.51a12.38,12.38,0,0,1,.07,1.46.57.57,0,0,1-.43.39c-2,0-3.94,0-6,0v-9.83a13,13,0,0,1,1.53-.09c.1,0,.27.37.27.57,0,1.79,0,3.58,0,5.37Z" transform="translate(-19.31 -145.22)"/><path class="cls-1" d="M128.82,156.28H127V145.41h1.79Z" transform="translate(-19.31 -145.22)"/><path class="cls-1" d="M100.8,156.34v-7.78h1.8l.07.89c.7-1.08,1.69-1.15,2.86-1a13.32,13.32,0,0,1,0,1.55c0,.11-.33.29-.5.27a2,2,0,0,0-2.31,2.19c.06,1.15.06,2.3,0,3.45a.62.62,0,0,1-.4.42C101.84,156.37,101.34,156.34,100.8,156.34Z" transform="translate(-19.31 -145.22)"/><path class="cls-1" d="M63.69,161.85v1.78l-.67,0A1.94,1.94,0,0,0,61,165.78c0,1.24,0,2.47,0,3.76H59.11V162h1.78l.09.75A2.48,2.48,0,0,1,63.69,161.85Z" transform="translate(-19.31 -145.22)"/><path class="cls-1" d="M115.18,148.56h1.76a5.87,5.87,0,0,1,0,.59c0,2.16,0,4.32,0,6.48,0,.84-.52.69-1,.71s-.91,0-.91-.69c0-2.27,0-4.55,0-6.82A1.74,1.74,0,0,1,115.18,148.56Z" transform="translate(-19.31 -145.22)"/><path class="cls-1" d="M116.11,145.36a1.21,1.21,0,0,1,1.24,1.18,1.4,1.4,0,0,1-1.3,1.24,1.29,1.29,0,0,1-1.21-1.23A1.13,1.13,0,0,1,116.11,145.36Z" transform="translate(-19.31 -145.22)"/></svg>